<?xml version="1.0" standalone="no"?>
<!DOCTYPE svg PUBLIC "-//W3C//DTD SVG 20010904//EN"
 "http://www.w3.org/TR/2001/REC-SVG-20010904/DTD/svg10.dtd">
<svg version="1.0" xmlns="http://www.w3.org/2000/svg"
 width="200.000000pt" height="200.000000pt" viewBox="0 0 200.000000 200.000000"
 preserveAspectRatio="xMidYMid meet">

<g transform="translate(0.000000,200.000000) scale(0.100000,-0.100000)"
fill="#000000" stroke="none">
<path d="M140 1645 l0 -85 515 0 515 0 0 85 0 85 -515 0 -515 0 0 -85z"/>
<path d="M260 1410 l0 -90 425 0 c379 0 430 2 458 17 18 9 57 24 87 34 l55 17
3 56 3 56 -516 0 -515 0 0 -90z"/>
<path d="M1250 1311 c-64 -20 -122 -49 -167 -84 l-32 -24 42 -41 43 -42 34 25
c40 29 130 65 165 65 24 0 25 3 25 60 0 59 0 60 -27 59 -16 0 -53 -8 -83 -18z"/>
<path d="M1430 1275 c0 -52 2 -55 28 -60 69 -14 131 -37 172 -65 l45 -30 39
40 c38 38 39 40 22 58 -41 46 -202 112 -273 112 l-33 0 0 -55z"/>
<path d="M140 1175 l0 -85 373 0 372 0 19 34 c10 19 41 57 68 85 l50 51 -441
0 -441 0 0 -85z"/>
<path d="M1352 1149 c-114 -15 -218 -94 -270 -207 -22 -47 -27 -71 -27 -142 0
-74 4 -93 29 -144 37 -76 101 -140 174 -174 49 -23 70 -27 147 -27 77 1 98 5
145 28 75 36 137 99 173 176 26 54 31 77 30 140 0 105 -29 179 -99 249 -83 83
-182 116 -302 101z m13 -154 c34 -12 50 -13 66 -5 32 18 104 14 139 -6 38 -23
70 -87 70 -140 0 -52 -39 -130 -86 -176 -40 -38 -126 -88 -151 -88 -22 0 -94
39 -140 76 -126 102 -124 306 3 344 42 12 48 12 99 -5z"/>
<path d="M1251 914 c-42 -53 -17 -152 51 -209 48 -41 92 -59 122 -51 42 11
132 104 146 153 31 102 -39 162 -135 116 -33 -16 -37 -16 -64 0 -45 26 -95 22
-120 -9z"/>
<path d="M983 1128 c-48 -54 -94 -161 -108 -255 l-7 -43 60 0 60 0 7 43 c8 47
44 133 74 176 l20 28 -37 36 c-21 21 -40 37 -43 37 -3 0 -15 -10 -26 -22z"/>
<path d="M1758 1113 l-37 -38 34 -55 c19 -30 42 -85 51 -122 l17 -68 58 0 59
0 -6 33 c-12 75 -26 122 -51 171 -28 56 -70 116 -81 116 -5 0 -24 -17 -44 -37z"/>
<path d="M140 945 l0 -85 334 0 334 0 15 68 c9 37 19 75 22 85 7 16 -14 17
-349 17 l-356 0 0 -85z"/>
<path d="M60 705 l0 -85 386 0 387 0 -7 33 c-4 17 -10 56 -13 85 l-6 52 -373
0 -374 0 0 -85z"/>
<path d="M875 760 c-18 -29 47 -205 103 -278 l25 -33 42 41 42 42 -32 49 c-18
26 -41 80 -51 119 l-18 70 -53 0 c-28 0 -54 -4 -58 -10z"/>
<path d="M1811 720 c-11 -52 -39 -114 -72 -161 l-18 -26 43 -42 43 -43 42 62
c41 62 76 155 83 220 l3 35 -57 3 -56 3 -11 -51z"/>
<path d="M140 475 l0 -85 415 0 415 0 -36 47 c-19 25 -44 63 -55 85 l-19 38
-360 0 -360 0 0 -85z"/>
<path d="M1090 445 l-41 -42 33 -25 c49 -37 130 -76 195 -93 85 -22 83 -23 83
45 0 43 -4 60 -13 60 -34 0 -120 33 -165 64 l-50 33 -42 -42z"/>
<path d="M1636 459 c-38 -28 -149 -69 -187 -69 -17 0 -19 -8 -19 -60 0 -69 -2
-68 99 -45 66 16 155 58 204 98 l28 22 -43 41 -43 42 -39 -29z"/>
</g>
</svg>
